        <svg xmlns="http://www.w3.org/2000/svg" xmlns:xlink="http://www.w3.org/1999/xlink" version="1.1" width="3162.1621621621625" 
        height="1012.9722537744816" viewBox="0 0 3162.1621621621625 1012.9722537744816">
			<rect fill="#111111" width="3162.1621621621625" height="1012.9722537744816"/>
			<g transform="scale(8.108108108108109) translate(10, 10)">
				<defs id="SvgjsDefs1160"></defs><g id="SvgjsG1161" featureKey="UqkkrJ-0" transform="matrix(0.8196726437381956,0,0,0.8196726437381956,-2.4590169540886517,0.015147868856187794)" fill="#3ec1d3"><title xmlns="http://www.w3.org/2000/svg">Technology of future  SOLID</title><path xmlns="http://www.w3.org/2000/svg" d="M62.58636,27.41406A2.00025,2.00025,0,0,0,64.00043,28H76.00049a2.00025,2.00025,0,0,0,1.41406-.58594l3.25763-3.25757A7.00384,7.00384,0,1,0,77.844,21.32837L75.17236,24H64.82855l-6.82819-6.82861V4h5.80487a2.03852,2.03852,0,0,0,.58484.03857C82.19415,3.37213,100.52875,11.43378,109.3941,28h-6.68823a6.99831,6.99831,0,1,0-8.70526,8.7052V55H79.00055a2.00011,2.00011,0,0,0-2.00006,2V68h-4V56a1.99935,1.99935,0,0,0-.69824-1.51855l-6.30182-5.40137V36h8.17194L76.844,38.67163a7.00411,7.00411,0,1,0,2.82819-2.82812l-3.25763-3.25757A2.00025,2.00025,0,0,0,75.00049,32H64.00043a2.0001,2.0001,0,0,0-2,2V50a1.99935,1.99935,0,0,0,.69824,1.51855l6.30176,5.40137V68h-8a2.00029,2.00029,0,0,0-1.41412.58594l-16.00006,16A2.00025,2.00025,0,0,0,43.00031,86v16.2948a7.00006,7.00006,0,1,0,4,0V86.82861L61.82855,72H98.00067a2.00059,2.00059,0,0,0,1.78906-1.10547l6.00006-12A2.00287,2.00287,0,0,0,106.00073,58V51h8.8067v8.23584l-2.5899,5.667a2.00093,2.00093,0,0,0-.05273,1.53467l8.81354,23.4502a.3001.3001,0,0,1-.0332.29.17952.17952,0,0,1-.1582.09473H112.197a2.00049,2.00049,0,0,0-1.89551,2.63867l2.375,7.0498-4.64941,1.61572a1.99978,1.99978,0,0,0-.9707,3.05273l2.959,4.1377-2.57324,2.03711a1.99953,1.99953,0,0,0-.75879,1.56836v5.1416a6.54083,6.54083,0,0,1-3.16705,5.62891A6.07673,6.07673,0,0,1,100.41473,124c-8.36627,0-40.41437-10.51709-40.41437-28V91.8335a2,2,0,0,0-4,0V96c0,21.33447,35.93384,32,44.41437,32a10.07527,10.07527,0,0,0,5.14069-1.41553,10.55519,10.55519,0,0,0,5.12793-9.07031v-4.17383l3.30865-2.61865a2.00032,2.00032,0,0,0,.38574-2.73193l-2.51178-3.51221,3.99518-1.38818a2.00007,2.00007,0,0,0,1.23926-2.52783l-2.11914-6.28906h5.80566a4.20057,4.20057,0,0,0,3.45123-1.82275,4.314,4.314,0,0,0,.48242-3.9751l-8.51862-22.666,2.4248-5.30664a2.00038,2.00038,0,0,0,.18066-.83105l-.00189-10.62329c.00037-.01624.00482-.03131.00482-.04761s-.00446-.03149-.00482-.04779l-.00006-.36432c-.627-15.11377-6.79694-27.8335-17.84387-36.78418A54.8527,54.8527,0,0,0,64.40161.04047,2.01123,2.01123,0,0,0,64.00043,0H56.00037a2.0001,2.0001,0,0,0-2,2V18a2.00025,2.00025,0,0,0,.58594,1.41406ZM114.69586,47H104.00067a2.0001,2.0001,0,0,0-2,2v8.52783L96.76434,68H81.00055V59H96.00061a2.00011,2.00011,0,0,0,2.00006-2V36.7052A7.02468,7.02468,0,0,0,102.70587,32h8.569A48.42648,48.42648,0,0,1,114.69586,47Z"></path><path xmlns="http://www.w3.org/2000/svg" d="M9.00006,13.7052V31a2.00093,2.00093,0,0,0,.748,1.55957l11.00006,8.8335a2.00007,2.00007,0,0,0,.252.16876V63a2.00162,2.00162,0,0,0,.48145,1.30176l5.51862,6.438V87.2948a7.00006,7.00006,0,1,0,4,0V70a2.00162,2.00162,0,0,0-.48145-1.30176l-5.51862-6.438v-43.814l10.00012,5.71436V28.2948a7.00006,7.00006,0,1,0,4,0V23a1.99982,1.99982,0,0,0-1.00781-1.73633l-14.00012-8A1.99965,1.99965,0,0,0,21.00012,15V36.46545L13.00006,30.041V13.7052a7.00006,7.00006,0,1,0-4,0Z"></path><path xmlns="http://www.w3.org/2000/svg" d="M54.00037,31.82861V61.17139l-15.00012,15V61.7052a7.00006,7.00006,0,1,0-4,0V81a1.99979,1.99979,0,0,0,3.41406,1.41406l19.00012-19A2.00025,2.00025,0,0,0,58.00037,62V31a2.00025,2.00025,0,0,0-.58594-1.41406l-7.41412-7.41455V7a2,2,0,0,0-4,0V23a2.00025,2.00025,0,0,0,.58594,1.41406Z"></path><path xmlns="http://www.w3.org/2000/svg" d="M3,80a7.00006,7.00006,0,1,0,9.00006-6.7052V59.7052a7.00006,7.00006,0,1,0-4,0V73.2948A7.00984,7.00984,0,0,0,3,80Z"></path></g><g id="SvgjsG1162" featureKey="0kuQ8p-0" transform="matrix(3.7037032850812803,0,0,3.7037032850812803,117.1111115436004,-3.6296224518249005)" fill="#3ec1d3"><path d="M5.5 20 l-2.7 -10.14 l-0.04 0 l0 10.14 l-1.98 0 l0 -14 l2.76 0 l2.22 8.38 l0.04 0 l0 -8.38 l1.96 0 l0 14 l-2.26 0 z M11.54 8 l0 3.9 l3.02 0 l0 2 l-3.02 0 l0 4.1 l3.8 0 l0 2 l-6 0 l0 -14 l6 0 l0 2 l-3.8 0 z M22 6 l2.04 0 l-2.3 6.8 l2.46 7.2 l-2.32 0 l-1.78 -5.54 l-0.04 0 l-1.8 5.54 l-2.06 0 l2.46 -7.2 l-2.3 -6.8 l2.28 0 l1.64 5.16 l0.04 0 z M24.66 8 l0 -2 l6.8 0 l0 2 l-2.3 0 l0 12 l-2.2 0 l0 -12 l-2.3 0 z M38.56 6 l1.6 9.94 l0.04 0 l1.48 -9.94 l3.06 0 l0 14 l-2.08 0 l0 -10.04 l-0.04 0 l-1.48 10.04 l-2.08 0 l-1.6 -9.9 l-0.04 0 l0 9.9 l-1.92 0 l0 -14 l3.06 0 z M48.36 9.22 l0 7.56 c0 1 0.44 1.38 1.14 1.38 s1.14 -0.38 1.14 -1.38 l0 -7.56 c0 -1 -0.44 -1.38 -1.14 -1.38 s-1.14 0.38 -1.14 1.38 z M46.16 16.64 l0 -7.28 c0 -2.24 1.18 -3.52 3.34 -3.52 s3.34 1.28 3.34 3.52 l0 7.28 c0 2.24 -1.18 3.52 -3.34 3.52 s-3.34 -1.28 -3.34 -3.52 z M55.88 6 l1.66 11.42 l0.04 0 l1.66 -11.42 l2.02 0 l-2.16 14 l-3.28 0 l-2.16 -14 l2.22 0 z M64.48 8 l0 3.9 l3.02 0 l0 2 l-3.02 0 l0 4.1 l3.8 0 l0 2 l-6 0 l0 -14 l6 0 l0 2 l-3.8 0 z"></path><text x="69.2" y="8.5" font-family="Arial, Helvetica, sans-serif" font-size="5.5" fill="#3ec1d3" font-weight="bold">™</text></g><g id="SvgjsG1163" featureKey="Nh6iBa-0" transform="matrix(0.4010860953189037,0,0,0.4010860953189037,119.67913104724377,78.65765771589498)" fill="#3ec1d3"><path d="M4.12 6 c2.28 0 3.26 1.06 3.26 3.22 l0 0.5 c0 1.44 -0.44 2.34 -1.42 2.8 l0 0.04 c1.18 0.46 1.64 1.5 1.64 2.98 l0 1.14 c0 2.16 -1.14 3.32 -3.34 3.32 l-3.46 0 l0 -14 l3.32 0 z M3.98 13.7 l-0.98 0 l0 4.3 l1.26 0 c0.74 0 1.14 -0.34 1.14 -1.38 l0 -1.22 c0 -1.3 -0.42 -1.7 -1.42 -1.7 z M4.06 8 l-1.06 0 l0 3.7 l0.86 0 c0.82 0 1.32 -0.36 1.32 -1.48 l0 -0.78 c0 -1 -0.34 -1.44 -1.12 -1.44 z M20.147938 8 l0 3.9 l3.02 0 l0 2 l-3.02 0 l0 4.1 l3.8 0 l0 2 l-6 0 l0 -14 l6 0 l0 2 l-3.8 0 z M36.535875 8 l0 4.22 l2.84 0 l0 2 l-2.84 0 l0 5.78 l-2.2 0 l0 -14 l5.82 0 l0 2 l-3.62 0 z M52.263813 9.22 l0 7.56 c0 1 0.44 1.38 1.14 1.38 s1.14 -0.38 1.14 -1.38 l0 -7.56 c0 -1 -0.44 -1.38 -1.14 -1.38 s-1.14 0.38 -1.14 1.38 z M50.063813 16.64 l0 -7.28 c0 -2.24 1.18 -3.52 3.34 -3.52 s3.34 1.28 3.34 3.52 l0 7.28 c0 2.24 -1.18 3.52 -3.34 3.52 s-3.34 -1.28 -3.34 -3.52 z M74.03175 20 l-2.24 0 c-0.12 -0.36 -0.2 -0.58 -0.2 -1.72 l0 -2.2 c0 -1.3 -0.44 -1.78 -1.44 -1.78 l-0.76 0 l0 5.7 l-2.2 0 l0 -14 l3.32 0 c2.28 0 3.26 1.06 3.26 3.22 l0 1.1 c0 1.44 -0.46 2.36 -1.44 2.82 l0 0.04 c1.1 0.46 1.46 1.5 1.46 2.96 l0 2.16 c0 0.68 0.02 1.18 0.24 1.7 z M70.45175 8 l-1.06 0 l0 4.3 l0.86 0 c0.82 0 1.32 -0.36 1.32 -1.48 l0 -1.38 c0 -1 -0.34 -1.44 -1.12 -1.44 z M86.459688 8 l0 3.9 l3.02 0 l0 2 l-3.02 0 l0 4.1 l3.8 0 l0 2 l-6 0 l0 -14 l6 0 l0 2 l-3.8 0 z M112.135562 8 l0 -2 l6.8 0 l0 2 l-2.3 0 l0 12 l-2.2 0 l0 -12 l-2.3 0 z M131.1235 14 l0 6 l-2.2 0 l0 -14 l2.2 0 l0 6 l2.5 0 l0 -6 l2.24 0 l0 14 l-2.24 0 l0 -6 l-2.5 0 z M148.691438 8 l0 3.9 l3.02 0 l0 2 l-3.02 0 l0 4.1 l3.8 0 l0 2 l-6 0 l0 -14 l6 0 l0 2 l-3.8 0 z M178.047313 6 l1.6 9.94 l0.04 0 l1.48 -9.94 l3.06 0 l0 14 l-2.08 0 l0 -10.04 l-0.04 0 l-1.48 10.04 l-2.08 0 l-1.6 -9.9 l-0.04 0 l0 9.9 l-1.92 0 l0 -14 l3.06 0 z M196.87525 9.22 l0 7.56 c0 1 0.44 1.38 1.14 1.38 s1.14 -0.38 1.14 -1.38 l0 -7.56 c0 -1 -0.44 -1.38 -1.14 -1.38 s-1.14 0.38 -1.14 1.38 z M194.67525 16.64 l0 -7.28 c0 -2.24 1.18 -3.52 3.34 -3.52 s3.34 1.28 3.34 3.52 l0 7.28 c0 2.24 -1.18 3.52 -3.34 3.52 s-3.34 -1.28 -3.34 -3.52 z M214.843188 6 l1.6 9.94 l0.04 0 l1.48 -9.94 l3.06 0 l0 14 l-2.08 0 l0 -10.04 l-0.04 0 l-1.48 10.04 l-2.08 0 l-1.6 -9.9 l-0.04 0 l0 9.9 l-1.92 0 l0 -14 l3.06 0 z M233.851125 8 l0 3.9 l3.02 0 l0 2 l-3.02 0 l0 4.1 l3.8 0 l0 2 l-6 0 l0 -14 l6 0 l0 2 l-3.8 0 z M252.739063 20 l-2.7 -10.14 l-0.04 0 l0 10.14 l-1.98 0 l0 -14 l2.76 0 l2.22 8.38 l0.04 0 l0 -8.38 l1.96 0 l0 14 l-2.26 0 z M264.967 8 l0 -2 l6.8 0 l0 2 l-2.3 0 l0 12 l-2.2 0 l0 -12 l-2.3 0 z M281.394938 20 l-0.84 0 l0 -2.12 l2.12 0 l0 1.9 l-0.96 2.22 l-0.9 0 z M304.790813 8 l0 -2 l6.8 0 l0 2 l-2.3 0 l0 12 l-2.2 0 l0 -12 l-2.3 0 z M323.77875 14 l0 6 l-2.2 0 l0 -14 l2.2 0 l0 6 l2.5 0 l0 -6 l2.24 0 l0 14 l-2.24 0 l0 -6 l-2.5 0 z M341.346688 8 l0 3.9 l3.02 0 l0 2 l-3.02 0 l0 4.1 l3.8 0 l0 2 l-6 0 l0 -14 l6 0 l0 2 l-3.8 0 z M370.902563 6 c2.2 0 3.28 1.22 3.28 3.46 l0 1.82 c0 2.24 -1.08 3.46 -3.28 3.46 l-1.04 0 l0 5.26 l-2.2 0 l0 -14 l3.24 0 z M370.902563 8 l-1.04 0 l0 4.74 l1.04 0 c0.7 0 1.08 -0.32 1.08 -1.32 l0 -2.1 c0 -1 -0.38 -1.32 -1.08 -1.32 z M391.0705 20 l-2.24 0 c-0.12 -0.36 -0.2 -0.58 -0.2 -1.72 l0 -2.2 c0 -1.3 -0.44 -1.78 -1.44 -1.78 l-0.76 0 l0 5.7 l-2.2 0 l0 -14 l3.32 0 c2.28 0 3.26 1.06 3.26 3.22 l0 1.1 c0 1.44 -0.46 2.36 -1.44 2.82 l0 0.04 c1.1 0.46 1.46 1.5 1.46 2.96 l0 2.16 c0 0.68 0.02 1.18 0.24 1.7 z M387.4905 8 l-1.06 0 l0 4.3 l0.86 0 c0.82 0 1.32 -0.36 1.32 -1.48 l0 -1.38 c0 -1 -0.34 -1.44 -1.12 -1.44 z M406.178438 6 l2.24 14 l-2.22 0 l-0.38 -2.54 l-2.7 0 l-0.38 2.54 l-2.02 0 l2.24 -14 l3.22 0 z M404.438438 8.48 l-1.04 7.08 l2.12 0 l-1.04 -7.08 l-0.04 0 z M422.766375 14.78 l2.08 0 l0 1.86 c0 2.24 -1.12 3.52 -3.28 3.52 s-3.28 -1.28 -3.28 -3.52 l0 -7.28 c0 -2.24 1.12 -3.52 3.28 -3.52 s3.28 1.28 3.28 3.52 l0 1.36 l-2.08 0 l0 -1.5 c0 -1 -0.44 -1.38 -1.14 -1.38 s-1.14 0.38 -1.14 1.38 l0 7.56 c0 1 0.44 1.36 1.14 1.36 s1.14 -0.36 1.14 -1.36 l0 -2 z M434.574313 8 l0 -2 l6.8 0 l0 2 l-2.3 0 l0 12 l-2.2 0 l0 -12 l-2.3 0 z M451.36225 20 l0 -14 l2.2 0 l0 14 l-2.2 0 z M468.490188 14.78 l2.08 0 l0 1.86 c0 2.24 -1.12 3.52 -3.28 3.52 s-3.28 -1.28 -3.28 -3.52 l0 -7.28 c0 -2.24 1.12 -3.52 3.28 -3.52 s3.28 1.28 3.28 3.52 l0 1.36 l-2.08 0 l0 -1.5 c0 -1 -0.44 -1.38 -1.14 -1.38 s-1.14 0.38 -1.14 1.38 l0 7.56 c0 1 0.44 1.36 1.14 1.36 s1.14 -0.36 1.14 -1.36 l0 -2 z M483.138125 8 l0 3.9 l3.02 0 l0 2 l-3.02 0 l0 4.1 l3.8 0 l0 2 l-6 0 l0 -14 l6 0 l0 2 l-3.8 0 z M497.326063 17.88 l2.12 0 l0 2.12 l-2.12 0 l0 -2.12 z"></path></g>
			</g>
		</svg>
	
